<svg width="404" height="271" viewBox="0 0 404 271" fill="none" xmlns="http://www.w3.org/2000/svg">
<g clip-path="url(#clip0_67_284)">
<path d="M180 119.719H103.816C101.301 119.719 98.8328 119.047 96.67 117.773C94.5773 116.541 92.8435 114.789 91.6389 112.69C90.4342 110.591 89.8003 108.218 89.7993 105.802V97.2848L77.8208 119.719H24.7676V73.8509H66.5428L75.381 48.5964H24.7676V16.3406L0 6.89355H76.1917C78.7039 6.89417 81.1696 7.56624 83.33 8.83922C85.4231 10.069 87.1575 11.8189 88.3623 13.9167C89.5671 16.0144 90.2007 18.3875 90.2007 20.8023V29.3195L102.187 6.89355H155.24V52.7612H113.465L104.619 78.0001H155.24V110.272L180 119.719Z" fill="#D42044"/>
</g>
<g clip-path="url(#clip1_67_284)">
<path d="M404 119.719H327.816C325.301 119.719 322.833 119.047 320.67 117.773C318.577 116.541 316.843 114.789 315.639 112.69C314.434 110.591 313.8 108.218 313.799 105.802V97.2848L301.821 119.719H248.768V73.8509H290.543L299.381 48.5964H248.768V16.3406L224 6.89355H300.192C302.704 6.89417 305.17 7.56624 307.33 8.83922C309.423 10.069 311.158 11.8189 312.362 13.9167C313.567 16.0144 314.201 18.3875 314.201 20.8023V29.3195L326.187 6.89355H379.24V52.7612H337.465L328.619 78.0001H379.24V110.272L404 119.719Z" fill="#D42044"/>
</g>
<path d="M32 271C86.8894 229.227 228.535 170.744 356 271C337.5 230 277.646 179.091 199.718 177.082C118.249 174.981 75.5 210 32 271Z" fill="#D42044"/>
<defs>
<clipPath id="clip0_67_284">
<rect width="180" height="130" fill="white"/>
</clipPath>
<clipPath id="clip1_67_284">
<rect width="180" height="130" fill="white" transform="translate(224)"/>
</clipPath>
</defs>
</svg>
