<svg width="363" height="369" viewBox="0 0 363 369" fill="none" xmlns="http://www.w3.org/2000/svg">
<path d="M363 243.121H209.363C204.291 243.122 199.313 241.757 194.951 239.17C190.731 236.668 187.234 233.111 184.805 228.849C182.376 224.587 181.097 219.766 181.095 214.86V197.564L156.939 243.121H49.948V149.975H134.195L152.018 98.6888H49.948V33.1847L0 14H153.653C158.719 14.0012 163.692 15.3661 168.049 17.9512C172.27 20.4486 175.768 24.0023 178.197 28.2623C180.627 32.5223 181.905 37.3416 181.905 42.2455V59.5418L206.077 14H313.068V107.147H228.821L210.982 158.401H313.068V223.937L363 243.121Z" fill="#D42044"/>
<path d="M101.897 315V276.558H111.376V315H101.897ZM110.322 315V306.996H126.542V315H110.322ZM110.322 299.465V291.461H125.436V299.465H110.322ZM110.322 284.563V276.558H126.226V284.563H110.322ZM129.48 315L142.224 294.568L142.329 295.41L130.533 276.558H141.276L147.858 287.669H149.227L155.599 276.558H166.026L154.283 295.516L154.125 294.673L167.29 315H156.547L148.701 302.309H147.332L139.907 315H129.48ZM171.527 315V276.558H185.114L193.013 296.832H194.066L201.912 276.558H215.762V315H206.072V282.193L207.599 282.298L197.699 307.259H188.8L178.847 282.298L180.48 282.193V315H171.527ZM242.423 316.053C238.912 316.053 235.858 315.456 233.26 314.263C230.662 313.034 228.503 311.437 226.782 309.471C225.062 307.47 223.781 305.311 222.938 302.994C222.096 300.676 221.674 298.43 221.674 296.253V295.095C221.674 292.672 222.113 290.302 222.991 287.985C223.869 285.633 225.185 283.509 226.94 281.614C228.696 279.718 230.855 278.208 233.418 277.085C236.016 275.961 239.017 275.4 242.423 275.4C245.793 275.4 248.759 275.961 251.322 277.085C253.92 278.208 256.097 279.718 257.852 281.614C259.607 283.509 260.924 285.633 261.801 287.985C262.714 290.302 263.171 292.672 263.171 295.095V296.253C263.171 298.43 262.732 300.676 261.854 302.994C261.011 305.311 259.73 307.47 258.01 309.471C256.29 311.437 254.131 313.034 251.533 314.263C248.935 315.456 245.898 316.053 242.423 316.053ZM242.423 306.89C244.108 306.89 245.617 306.61 246.951 306.048C248.285 305.486 249.426 304.696 250.374 303.678C251.322 302.66 252.042 301.484 252.533 300.15C253.025 298.781 253.27 297.306 253.27 295.726C253.27 294.041 253.007 292.514 252.481 291.145C251.989 289.776 251.269 288.6 250.322 287.617C249.374 286.634 248.233 285.879 246.899 285.352C245.565 284.826 244.073 284.563 242.423 284.563C240.737 284.563 239.228 284.826 237.894 285.352C236.56 285.879 235.419 286.634 234.471 287.617C233.523 288.6 232.803 289.776 232.312 291.145C231.82 292.514 231.575 294.041 231.575 295.726C231.575 297.306 231.82 298.781 232.312 300.15C232.803 301.484 233.523 302.66 234.471 303.678C235.419 304.696 236.56 305.486 237.894 306.048C239.228 306.61 240.737 306.89 242.423 306.89Z" fill="white"/>
<path d="M106.59 351V340.05H108.06V351H106.59ZM107.76 351V349.68H113.07V351H107.76ZM107.76 346.095V344.775H112.605V346.095H107.76ZM107.76 341.37V340.05H112.92V341.37H107.76ZM114.414 351L117.279 346.785L117.234 347.085L114.549 342.99H116.139L118.074 346.005H118.284L120.114 342.99H121.599L119.064 346.98L119.109 346.71L122.109 351H120.519L118.269 347.745H118.059L115.899 351H114.414ZM128.466 351V348.6H128.226V345.825C128.226 345.275 128.081 344.86 127.791 344.58C127.511 344.3 127.096 344.16 126.546 344.16C126.236 344.16 125.916 344.165 125.586 344.175C125.256 344.185 124.941 344.195 124.641 344.205C124.341 344.215 124.081 344.23 123.861 344.25V342.99C124.081 342.97 124.311 342.955 124.551 342.945C124.801 342.925 125.056 342.915 125.316 342.915C125.576 342.905 125.826 342.9 126.066 342.9C126.886 342.9 127.556 343 128.076 343.2C128.596 343.39 128.981 343.705 129.231 344.145C129.481 344.585 129.606 345.18 129.606 345.93V351H128.466ZM125.841 351.21C125.241 351.21 124.721 351.11 124.281 350.91C123.851 350.7 123.516 350.4 123.276 350.01C123.046 349.62 122.931 349.15 122.931 348.6C122.931 348.03 123.056 347.555 123.306 347.175C123.566 346.795 123.941 346.51 124.431 346.32C124.921 346.12 125.511 346.02 126.201 346.02H128.376V347.1H126.141C125.561 347.1 125.116 347.24 124.806 347.52C124.496 347.8 124.341 348.16 124.341 348.6C124.341 349.04 124.496 349.395 124.806 349.665C125.116 349.935 125.561 350.07 126.141 350.07C126.481 350.07 126.806 350.01 127.116 349.89C127.426 349.76 127.681 349.55 127.881 349.26C128.091 348.96 128.206 348.55 128.226 348.03L128.616 348.6C128.566 349.17 128.426 349.65 128.196 350.04C127.976 350.42 127.666 350.71 127.266 350.91C126.876 351.11 126.401 351.21 125.841 351.21ZM132.249 351V342.99H133.389V346.425H133.209C133.209 345.645 133.309 344.985 133.509 344.445C133.719 343.895 134.029 343.475 134.439 343.185C134.849 342.895 135.369 342.75 135.999 342.75H136.059C136.689 342.75 137.209 342.895 137.619 343.185C138.039 343.475 138.349 343.895 138.549 344.445C138.749 344.985 138.849 345.645 138.849 346.425H138.429C138.429 345.645 138.534 344.985 138.744 344.445C138.954 343.895 139.264 343.475 139.674 343.185C140.094 342.895 140.619 342.75 141.249 342.75H141.309C141.939 342.75 142.464 342.895 142.884 343.185C143.304 343.475 143.614 343.895 143.814 344.445C144.024 344.985 144.129 345.645 144.129 346.425V351H142.689V346.11C142.689 345.46 142.529 344.96 142.209 344.61C141.889 344.25 141.444 344.07 140.874 344.07C140.284 344.07 139.809 344.26 139.449 344.64C139.089 345.01 138.909 345.53 138.909 346.2V351H137.469V346.11C137.469 345.46 137.309 344.96 136.989 344.61C136.669 344.25 136.224 344.07 135.654 344.07C135.064 344.07 134.589 344.26 134.229 344.64C133.869 345.01 133.689 345.53 133.689 346.2V351H132.249ZM147.156 351V342.99H148.596V351H147.156ZM145.926 344.13V342.99H148.596V344.13H145.926ZM147.561 341.7C147.241 341.7 147.001 341.615 146.841 341.445C146.691 341.275 146.616 341.06 146.616 340.8C146.616 340.54 146.691 340.325 146.841 340.155C147.001 339.985 147.241 339.9 147.561 339.9C147.881 339.9 148.116 339.985 148.266 340.155C148.426 340.325 148.506 340.54 148.506 340.8C148.506 341.06 148.426 341.275 148.266 341.445C148.116 341.615 147.881 341.7 147.561 341.7ZM151.38 351V342.99H152.52V346.425H152.34C152.34 345.635 152.445 344.97 152.655 344.43C152.875 343.88 153.205 343.465 153.645 343.185C154.085 342.895 154.64 342.75 155.31 342.75H155.37C156.38 342.75 157.125 343.065 157.605 343.695C158.095 344.325 158.34 345.235 158.34 346.425V351H156.9V346.125C156.9 345.505 156.725 345.01 156.375 344.64C156.025 344.26 155.545 344.07 154.935 344.07C154.305 344.07 153.795 344.265 153.405 344.655C153.015 345.045 152.82 345.565 152.82 346.215V351H151.38ZM165.82 351V348.6H165.58V345.825C165.58 345.275 165.435 344.86 165.145 344.58C164.865 344.3 164.45 344.16 163.9 344.16C163.59 344.16 163.27 344.165 162.94 344.175C162.61 344.185 162.295 344.195 161.995 344.205C161.695 344.215 161.435 344.23 161.215 344.25V342.99C161.435 342.97 161.665 342.955 161.905 342.945C162.155 342.925 162.41 342.915 162.67 342.915C162.93 342.905 163.18 342.9 163.42 342.9C164.24 342.9 164.91 343 165.43 343.2C165.95 343.39 166.335 343.705 166.585 344.145C166.835 344.585 166.96 345.18 166.96 345.93V351H165.82ZM163.195 351.21C162.595 351.21 162.075 351.11 161.635 350.91C161.205 350.7 160.87 350.4 160.63 350.01C160.4 349.62 160.285 349.15 160.285 348.6C160.285 348.03 160.41 347.555 160.66 347.175C160.92 346.795 161.295 346.51 161.785 346.32C162.275 346.12 162.865 346.02 163.555 346.02H165.73V347.1H163.495C162.915 347.1 162.47 347.24 162.16 347.52C161.85 347.8 161.695 348.16 161.695 348.6C161.695 349.04 161.85 349.395 162.16 349.665C162.47 349.935 162.915 350.07 163.495 350.07C163.835 350.07 164.16 350.01 164.47 349.89C164.78 349.76 165.035 349.55 165.235 349.26C165.445 348.96 165.56 348.55 165.58 348.03L165.97 348.6C165.92 349.17 165.78 349.65 165.55 350.04C165.33 350.42 165.02 350.71 164.62 350.91C164.23 351.11 163.755 351.21 163.195 351.21ZM172.723 351.09C172.123 351.09 171.603 351.005 171.163 350.835C170.733 350.665 170.398 350.375 170.158 349.965C169.928 349.545 169.813 348.98 169.813 348.27V340.56H171.193V348.45C171.193 348.88 171.308 349.215 171.538 349.455C171.778 349.685 172.113 349.8 172.543 349.8H173.953V351.09H172.723ZM168.433 344.07V342.99H173.953V344.07H168.433ZM176.379 351V342.99H177.819V351H176.379ZM175.149 344.13V342.99H177.819V344.13H175.149ZM176.784 341.7C176.464 341.7 176.224 341.615 176.064 341.445C175.914 341.275 175.839 341.06 175.839 340.8C175.839 340.54 175.914 340.325 176.064 340.155C176.224 339.985 176.464 339.9 176.784 339.9C177.104 339.9 177.339 339.985 177.489 340.155C177.649 340.325 177.729 340.54 177.729 340.8C177.729 341.06 177.649 341.275 177.489 341.445C177.339 341.615 177.104 341.7 176.784 341.7ZM184.294 351.27C183.594 351.27 182.979 351.15 182.449 350.91C181.919 350.67 181.469 350.355 181.099 349.965C180.739 349.565 180.464 349.12 180.274 348.63C180.094 348.14 180.004 347.64 180.004 347.13V346.86C180.004 346.35 180.099 345.85 180.289 345.36C180.479 344.86 180.759 344.415 181.129 344.025C181.499 343.625 181.949 343.31 182.479 343.08C183.009 342.84 183.614 342.72 184.294 342.72C184.974 342.72 185.579 342.84 186.109 343.08C186.639 343.31 187.089 343.625 187.459 344.025C187.829 344.415 188.109 344.86 188.299 345.36C188.489 345.85 188.584 346.35 188.584 346.86V347.13C188.584 347.64 188.489 348.14 188.299 348.63C188.119 349.12 187.844 349.565 187.474 349.965C187.114 350.355 186.669 350.67 186.139 350.91C185.609 351.15 184.994 351.27 184.294 351.27ZM184.294 349.98C184.894 349.98 185.404 349.85 185.824 349.59C186.254 349.32 186.579 348.96 186.799 348.51C187.029 348.06 187.144 347.555 187.144 346.995C187.144 346.425 187.029 345.915 186.799 345.465C186.569 345.015 186.239 344.66 185.809 344.4C185.389 344.14 184.884 344.01 184.294 344.01C183.714 344.01 183.209 344.14 182.779 344.4C182.349 344.66 182.019 345.015 181.789 345.465C181.559 345.915 181.444 346.425 181.444 346.995C181.444 347.555 181.554 348.06 181.774 348.51C182.004 348.96 182.329 349.32 182.749 349.59C183.179 349.85 183.694 349.98 184.294 349.98ZM190.74 351V342.99H191.88V346.425H191.7C191.7 345.635 191.805 344.97 192.015 344.43C192.235 343.88 192.565 343.465 193.005 343.185C193.445 342.895 194 342.75 194.67 342.75H194.73C195.74 342.75 196.485 343.065 196.965 343.695C197.455 344.325 197.7 345.235 197.7 346.425V351H196.26V346.125C196.26 345.505 196.085 345.01 195.735 344.64C195.385 344.26 194.905 344.07 194.295 344.07C193.665 344.07 193.155 344.265 192.765 344.655C192.375 345.045 192.18 345.565 192.18 346.215V351H190.74ZM207.513 351.27C206.603 351.27 205.828 351.12 205.188 350.82C204.548 350.52 204.058 350.105 203.718 349.575C203.378 349.045 203.208 348.445 203.208 347.775H204.678C204.678 348.105 204.763 348.435 204.933 348.765C205.113 349.095 205.408 349.37 205.818 349.59C206.238 349.81 206.803 349.92 207.513 349.92C208.173 349.92 208.713 349.825 209.133 349.635C209.553 349.435 209.863 349.18 210.063 348.87C210.263 348.55 210.363 348.205 210.363 347.835C210.363 347.385 210.168 347.015 209.778 346.725C209.388 346.425 208.818 346.24 208.068 346.17L206.853 346.065C205.883 345.985 205.108 345.685 204.528 345.165C203.948 344.645 203.658 343.96 203.658 343.11C203.658 342.44 203.818 341.855 204.138 341.355C204.468 340.855 204.923 340.465 205.503 340.185C206.083 339.895 206.758 339.75 207.528 339.75C208.288 339.75 208.958 339.89 209.538 340.17C210.118 340.45 210.568 340.845 210.888 341.355C211.218 341.855 211.383 342.455 211.383 343.155H209.913C209.913 342.805 209.828 342.475 209.658 342.165C209.498 341.855 209.243 341.6 208.893 341.4C208.543 341.2 208.088 341.1 207.528 341.1C206.988 341.1 206.538 341.195 206.178 341.385C205.828 341.575 205.563 341.825 205.383 342.135C205.213 342.435 205.128 342.76 205.128 343.11C205.128 343.51 205.283 343.865 205.593 344.175C205.903 344.485 206.363 344.665 206.973 344.715L208.188 344.82C208.938 344.88 209.583 345.04 210.123 345.3C210.673 345.55 211.093 345.89 211.383 346.32C211.683 346.74 211.833 347.245 211.833 347.835C211.833 348.505 211.653 349.1 211.293 349.62C210.933 350.14 210.428 350.545 209.778 350.835C209.128 351.125 208.373 351.27 207.513 351.27ZM213.55 354.12V352.83H214.705C215.045 352.83 215.33 352.785 215.56 352.695C215.8 352.615 215.995 352.475 216.145 352.275C216.305 352.075 216.435 351.81 216.535 351.48L219.055 342.99H220.465L217.795 351.855C217.635 352.385 217.41 352.815 217.12 353.145C216.83 353.485 216.475 353.73 216.055 353.88C215.645 354.04 215.165 354.12 214.615 354.12H213.55ZM215.995 350.82V349.62H217.735V350.82H215.995ZM215.845 350.82L212.98 342.99H214.45L217.195 350.82H215.845ZM224.859 351.24C223.809 351.24 222.994 351.015 222.414 350.565C221.844 350.115 221.549 349.5 221.529 348.72H222.879C222.899 349.03 223.054 349.325 223.344 349.605C223.644 349.875 224.149 350.01 224.859 350.01C225.499 350.01 225.989 349.885 226.329 349.635C226.669 349.375 226.839 349.06 226.839 348.69C226.839 348.36 226.714 348.105 226.464 347.925C226.214 347.735 225.809 347.61 225.249 347.55L224.379 347.46C223.619 347.38 222.999 347.155 222.519 346.785C222.039 346.405 221.799 345.875 221.799 345.195C221.799 344.685 221.929 344.25 222.189 343.89C222.449 343.52 222.809 343.24 223.269 343.05C223.729 342.85 224.259 342.75 224.859 342.75C225.759 342.75 226.489 342.95 227.049 343.35C227.609 343.75 227.899 344.345 227.919 345.135H226.569C226.559 344.815 226.409 344.545 226.119 344.325C225.839 344.095 225.419 343.98 224.859 343.98C224.299 343.98 223.874 344.095 223.584 344.325C223.294 344.555 223.149 344.845 223.149 345.195C223.149 345.495 223.249 345.735 223.449 345.915C223.659 346.095 223.999 346.21 224.469 346.26L225.339 346.35C226.199 346.44 226.889 346.68 227.409 347.07C227.929 347.45 228.189 347.99 228.189 348.69C228.189 349.19 228.044 349.635 227.754 350.025C227.474 350.405 227.084 350.705 226.584 350.925C226.084 351.135 225.509 351.24 224.859 351.24ZM233.396 351.09C232.796 351.09 232.276 351.005 231.836 350.835C231.406 350.665 231.071 350.375 230.831 349.965C230.601 349.545 230.486 348.98 230.486 348.27V340.56H231.866V348.45C231.866 348.88 231.981 349.215 232.211 349.455C232.451 349.685 232.786 349.8 233.216 349.8H234.626V351.09H233.396ZM229.106 344.07V342.99H234.626V344.07H229.106ZM240.01 351.27C239.31 351.27 238.705 351.15 238.195 350.91C237.685 350.67 237.27 350.355 236.95 349.965C236.63 349.565 236.39 349.12 236.23 348.63C236.08 348.14 236.005 347.64 236.005 347.13V346.86C236.005 346.34 236.08 345.835 236.23 345.345C236.39 344.855 236.63 344.415 236.95 344.025C237.27 343.625 237.675 343.31 238.165 343.08C238.665 342.84 239.25 342.72 239.92 342.72C240.79 342.72 241.505 342.91 242.065 343.29C242.635 343.66 243.055 344.14 243.325 344.73C243.605 345.32 243.745 345.95 243.745 346.62V347.265H236.635V346.185H242.695L242.365 346.77C242.365 346.2 242.275 345.71 242.095 345.3C241.915 344.88 241.645 344.555 241.285 344.325C240.925 344.095 240.47 343.98 239.92 343.98C239.35 343.98 238.875 344.11 238.495 344.37C238.125 344.63 237.845 344.985 237.655 345.435C237.475 345.885 237.385 346.405 237.385 346.995C237.385 347.565 237.475 348.08 237.655 348.54C237.845 348.99 238.135 349.35 238.525 349.62C238.915 349.88 239.41 350.01 240.01 350.01C240.64 350.01 241.15 349.87 241.54 349.59C241.94 349.31 242.18 348.985 242.26 348.615H243.61C243.5 349.165 243.28 349.64 242.95 350.04C242.62 350.44 242.205 350.745 241.705 350.955C241.205 351.165 240.64 351.27 240.01 351.27ZM245.789 351V342.99H246.929V346.425H246.749C246.749 345.645 246.849 344.985 247.049 344.445C247.259 343.895 247.569 343.475 247.979 343.185C248.389 342.895 248.909 342.75 249.539 342.75H249.599C250.229 342.75 250.749 342.895 251.159 343.185C251.579 343.475 251.889 343.895 252.089 344.445C252.289 344.985 252.389 345.645 252.389 346.425H251.969C251.969 345.645 252.074 344.985 252.284 344.445C252.494 343.895 252.804 343.475 253.214 343.185C253.634 342.895 254.159 342.75 254.789 342.75H254.849C255.479 342.75 256.004 342.895 256.424 343.185C256.844 343.475 257.154 343.895 257.354 344.445C257.564 344.985 257.669 345.645 257.669 346.425V351H256.229V346.11C256.229 345.46 256.069 344.96 255.749 344.61C255.429 344.25 254.984 344.07 254.414 344.07C253.824 344.07 253.349 344.26 252.989 344.64C252.629 345.01 252.449 345.53 252.449 346.2V351H251.009V346.11C251.009 345.46 250.849 344.96 250.529 344.61C250.209 344.25 249.764 344.07 249.194 344.07C248.604 344.07 248.129 344.26 247.769 344.64C247.409 345.01 247.229 345.53 247.229 346.2V351H245.789Z" fill="white"/>
</svg>
