<svg width="22" height="16" viewBox="0 0 22 16" fill="none" xmlns="http://www.w3.org/2000/svg">
<g clip-path="url(#clip0_57_70)">
<path d="M22 14.7348H12.6886C12.3813 14.7348 12.0796 14.6521 11.8152 14.4953C11.5594 14.3437 11.3475 14.1281 11.2003 13.8698C11.0531 13.6115 10.9756 13.3193 10.9755 13.022V11.9737L9.51143 14.7348H3.02715V9.08954H8.13301L9.21324 5.98129H3.02715V2.01134L0 0.848633H9.31232C9.61936 0.848708 9.92073 0.931425 10.1848 1.0881C10.4406 1.23946 10.6526 1.45484 10.7998 1.71302C10.9471 1.9712 11.0245 2.26327 11.0245 2.56048V3.60874L12.4895 0.848633H18.9738V6.49388H13.868L12.7868 9.60021H18.9738V13.5721L22 14.7348Z" fill="#D42044"/>
</g>
<defs>
<clipPath id="clip0_57_70">
<rect width="22" height="16" fill="white"/>
</clipPath>
</defs>
</svg>
