<svg width="48" height="48" viewBox="0 0 48 48" fill="none" xmlns="http://www.w3.org/2000/svg">
<path d="M6 26C13.2 10 34.8 10 42 26" stroke="black" stroke-opacity="0.5" stroke-width="3" stroke-linecap="round" stroke-linejoin="round"/>
<path d="M24 34C23.2121 34 22.4319 33.8448 21.7039 33.5433C20.9759 33.2417 20.3145 32.7998 19.7574 32.2426C19.2002 31.6855 18.7583 31.0241 18.4567 30.2961C18.1552 29.5681 18 28.7879 18 28C18 27.2121 18.1552 26.4319 18.4567 25.7039C18.7583 24.9759 19.2002 24.3145 19.7574 23.7574C20.3145 23.2002 20.9759 22.7583 21.7039 22.4567C22.4319 22.1552 23.2121 22 24 22C25.5913 22 27.1174 22.6321 28.2426 23.7574C29.3679 24.8826 30 26.4087 30 28C30 29.5913 29.3679 31.1174 28.2426 32.2426C27.1174 33.3679 25.5913 34 24 34Z" stroke="black" stroke-opacity="0.5" stroke-width="3" stroke-linecap="round" stroke-linejoin="round"/>
</svg>
