<svg width="48" height="48" viewBox="0 0 48 48" fill="none" xmlns="http://www.w3.org/2000/svg">
<path d="M6 8L41 41" stroke="#222222" stroke-width="3" stroke-linecap="round"/>
<path fill-rule="evenodd" clip-rule="evenodd" d="M14.1836 14.9491C10.2284 17.0613 6.81211 20.5398 4.632 25.3845C4.29204 26.1399 4.62887 27.0279 5.38434 27.3679C6.1398 27.7078 7.02781 27.371 7.36776 26.6155C9.41926 22.0567 12.7251 18.9001 16.5135 17.1459L14.1836 14.9491ZM19.6981 16.0252C27.6014 14.0642 36.5725 17.5943 40.632 26.6155C40.972 27.371 41.86 27.7078 42.6154 27.3679C43.3709 27.0279 43.7077 26.1399 43.3678 25.3845C38.3505 14.235 26.7861 10.3216 17.1728 13.6443L19.6981 16.0252Z" fill="black" fill-opacity="0.5"/>
<path fill-rule="evenodd" clip-rule="evenodd" d="M20.821 21.2072C20.0325 21.5762 19.3135 22.08 18.6967 22.6968C18.0003 23.3933 17.4478 24.22 17.0709 25.13C16.694 26.0399 16.5 27.0152 16.5 28.0001C16.5 28.985 16.694 29.9603 17.0709 30.8702C17.4478 31.7802 18.0003 32.607 18.6967 33.3034C19.3931 33.9999 20.2199 34.5523 21.1299 34.9292C22.0398 35.3061 23.0151 35.5001 24 35.5001C25.9891 35.5001 27.8968 34.7099 29.3033 33.3034C30.0314 32.5753 30.5944 31.7129 30.968 30.7744L28.4796 28.4282C28.3806 29.4646 27.9244 30.4397 27.182 31.1821C26.3381 32.026 25.1935 32.5001 24 32.5001C23.4091 32.5001 22.8239 32.3837 22.2779 32.1576C21.732 31.9314 21.2359 31.6 20.818 31.1821C20.4002 30.7642 20.0687 30.2682 19.8425 29.7222C19.6164 29.1762 19.5 28.5911 19.5 28.0001C19.5 27.4092 19.6164 26.824 19.8425 26.278C20.0687 25.7321 20.4002 25.236 20.818 24.8181C21.2359 24.4003 21.732 24.0688 22.2779 23.8427C22.6098 23.7052 22.9561 23.6083 23.3094 23.5534L20.821 21.2072ZM31.4461 27.1019C31.2461 25.4437 30.4964 23.89 29.3033 22.6968C28.0054 21.3989 26.2807 20.6258 24.459 20.5142L31.4461 27.1019Z" fill="black" fill-opacity="0.5"/>
</svg>
